<?xml version="1.0" encoding="iso-8859-1"?>
<!-- Generator: Adobe Illustrator 19.0.0, SVG Export Plug-In . SVG Version: 6.00 Build 0)  -->
<svg version="1.1" id="Capa_1" xmlns="http://www.w3.org/2000/svg" xmlns:xlink="http://www.w3.org/1999/xlink" x="0px" y="0px"
	 viewBox="0 0 480.027 480.027" style="enable-background:new 0 0 480.027 480.027;" xml:space="preserve">
<g>
	<g>
		<path d="M240.013,0c-92.784,0-168,75.216-168,168c-0.012,32.869,9.226,65.077,26.656,92.944l134.56,215.296
			c2.327,3.755,7.259,4.913,11.014,2.586c1.05-0.651,1.935-1.536,2.586-2.586l134.56-215.296
			c17.419-27.87,26.645-60.078,26.624-92.944C408.013,75.216,332.797,0,240.013,0z M367.797,252.464l-127.784,204.44
			l-127.784-204.44C96.396,227.138,88.004,197.869,88.013,168c0-83.947,68.053-152,152-152s152,68.053,152,152
			C392.023,197.869,383.631,227.138,367.797,252.464z"/>
	</g>
</g>
<g>
	<g>
		<path d="M326.149,126.656c-14.365-25.046-46.314-33.706-71.361-19.341c-5.179,2.97-9.811,6.806-13.695,11.341l-1.08,1.216
			l-1.088-1.256c-18.779-21.927-51.777-24.479-73.704-5.7c-4.536,3.885-8.373,8.519-11.344,13.7
			c-11.704,20.492-8.262,46.28,8.408,62.984l72.072,72.072c3.124,3.123,8.188,3.123,11.312,0l72.072-72.072
			C334.389,172.901,337.83,147.139,326.149,126.656z M306.413,178.272l-66.4,66.4l-66.4-66.4
			c-11.546-11.586-13.929-29.457-5.824-43.664c9.944-17.385,32.099-23.417,49.484-13.473c3.602,2.06,6.823,4.723,9.524,7.873
			l7.152,8.352c3.098,3.358,8.331,3.569,11.689,0.471c0.163-0.151,0.32-0.308,0.471-0.471l7.144-8.352
			c13.041-15.206,35.94-16.961,51.146-3.92c3.148,2.7,5.81,5.92,7.87,9.52C320.366,148.822,317.97,166.694,306.413,178.272z"/>
	</g>
</g>
<g>
	<g>
		<path d="M240.013,40c-70.692,0-128,57.308-128,128s57.308,128,128,128s128-57.308,128-128
			C367.93,97.342,310.671,40.084,240.013,40z M240.013,280c-61.856,0-112-50.144-112-112s50.144-112,112-112s112,50.144,112,112
			C351.947,229.828,301.842,279.934,240.013,280z"/>
	</g>
</g>
<g>
</g>
<g>
</g>
<g>
</g>
<g>
</g>
<g>
</g>
<g>
</g>
<g>
</g>
<g>
</g>
<g>
</g>
<g>
</g>
<g>
</g>
<g>
</g>
<g>
</g>
<g>
</g>
<g>
</g>
</svg>
